<svg width="24" height="24" viewBox="0 0 24 24" fill="none" xmlns="http://www.w3.org/2000/svg">
<path fill-rule="evenodd" clip-rule="evenodd" d="M5 20.5V3.50024H14.1485C15.4926 3.48345 16.3736 4.36274 16.8492 5.31992C17.3159 6.2591 17.4932 7.42554 17.4723 8.51265C17.453 9.51971 17.2614 10.5787 16.8665 11.4636C17.5266 11.7545 18.0215 12.2838 18.3517 12.8814C18.8375 13.7607 19.0198 14.849 18.9983 15.856C18.9768 16.8668 18.7471 17.9379 18.2661 18.8007C17.7837 19.666 16.9389 20.4821 15.6987 20.4999L15.6824 19.3409V20.5H5ZM14.7231 10.6303C14.4499 11.1744 14.2215 11.2246 14.1447 11.2274H7.28909V5.81839H14.1564V4.65931L14.1741 5.81825C14.3464 5.81553 14.5666 5.88325 14.8044 6.3619C15.0524 6.8609 15.1999 7.62185 15.1837 8.46758C15.1675 9.30942 14.9916 10.0957 14.7231 10.6303ZM7.28909 18.1819V13.5456H15.733C15.9566 13.5512 16.156 13.6548 16.3541 14.0133C16.5828 14.4273 16.7254 15.0732 16.7098 15.8059C16.6942 16.5347 16.5248 17.2088 16.2727 17.6611C16.0253 18.1048 15.8056 18.1781 15.6717 18.1819H7.28909Z" fill="#1E1E23"/>
</svg>
